HIERARCHY
ROOT Hips
{
	OFFSET 0.000000 97.167313 0.000000
	CHANNELS 6 Xposition Yposition Zposition Xrotation Yrotation Zrotation
	JOINT Spine
	{
		OFFSET 0.000000 13.784798 0.064400
		CHANNELS 3 Xrotation Yrotation Zrotation
		JOINT Spine1
		{
			OFFSET 0.000000 12.037903 0.404700
			CHANNELS 3 Xrotation Yrotation Zrotation
			JOINT Spine2
			{
				OFFSET 0.000000 17.795601 0.420200
				CHANNELS 3 Xrotation Yrotation Zrotation
				JOINT Neck
				{
					OFFSET 0.000000 39.131302 11.954600
					CHANNELS 3 Xrotation Yrotation Zrotation
					JOINT Head
					{
						OFFSET 0.000000 14.456192 15.627699
						CHANNELS 3 Xrotation Yrotation Zrotation
						JOINT HeadTop_End
						{
							OFFSET 0.000000 15.703506 7.603401
							CHANNELS 3 Xrotation Yrotation Zrotation
							End Site
							{
								OFFSET 0.000000 17.447403 0.000000
							}
						}
					}
				}
				JOINT LeftShoulder
				{
					OFFSET 17.399500 24.608795 1.168800
					CHANNELS 3 Xrotation Yrotation Zrotation
					JOINT LeftArm
					{
						OFFSET 18.980635 5.765305 1.818600
						CHANNELS 3 Xrotation Yrotation Zrotation
						JOINT LeftForeArm
						{
							OFFSET 49.290169 0.000000 0.000000
							CHANNELS 3 Xrotation Yrotation Zrotation
							JOINT LeftHand
							{
								OFFSET 31.562012 0.000000 0.000000
								CHANNELS 3 Xrotation Yrotation Zrotation
								JOINT LeftHandThumb1
								{
									OFFSET 6.133995 -4.388519 7.076070
									CHANNELS 3 Xrotation Yrotation Zrotation
									JOINT LeftHandThumb2
									{
										OFFSET 6.037666 -3.485840 3.485847
										CHANNELS 3 Xrotation Yrotation Zrotation
										JOINT LeftHandThumb3
										{
											OFFSET 6.496506 -3.750763 3.750761
											CHANNELS 3 Xrotation Yrotation Zrotation
											JOINT LeftHandThumb4
											{
												OFFSET 5.616882 -3.242905 3.242910
												CHANNELS 3 Xrotation Yrotation Zrotation
												End Site
												{
													OFFSET -1.254608 7.132141 0.375429
												}
											}
										}
									}
								}
								JOINT LeftHandPinky1
								{
									OFFSET 18.920792 -0.453171 -11.426712
									CHANNELS 3 Xrotation Yrotation Zrotation
									JOINT LeftHandPinky2
									{
										OFFSET 4.919586 0.000000 0.000000
										CHANNELS 3 Xrotation Yrotation Zrotation
										JOINT LeftHandPinky3
										{
											OFFSET 5.233047 0.000000 0.000000
											CHANNELS 3 Xrotation Yrotation Zrotation
											JOINT LeftHandPinky4
											{
												OFFSET 5.571716 0.000000 0.000000
												CHANNELS 3 Xrotation Yrotation Zrotation
												End Site
												{
													OFFSET -3.459808 4.342407 -0.466164
												}
											}
										}
									}
								}
								JOINT LeftHandRing1
								{
									OFFSET 22.726120 -0.094986 -6.500475
									CHANNELS 3 Xrotation Yrotation Zrotation
									JOINT LeftHandRing2
									{
										OFFSET 6.408615 0.000000 0.000000
										CHANNELS 3 Xrotation Yrotation Zrotation
										JOINT LeftHandRing3
										{
											OFFSET 6.150223 0.000000 0.000000
											CHANNELS 3 Xrotation Yrotation Zrotation
											JOINT LeftHandRing4
											{
												OFFSET 6.145386 0.000000 0.000000
												CHANNELS 3 Xrotation Yrotation Zrotation
												End Site
												{
													OFFSET -3.671402 4.923981 -0.202372
												}
											}
										}
									}
								}
								JOINT LeftHandMiddle1
								{
									OFFSET 23.373947 0.000000 0.000001
									CHANNELS 3 Xrotation Yrotation Zrotation
									JOINT LeftHandMiddle2
									{
										OFFSET 6.996567 0.000000 0.000000
										CHANNELS 3 Xrotation Yrotation Zrotation
										JOINT LeftHandMiddle3
										{
											OFFSET 7.015945 0.000000 0.000000
											CHANNELS 3 Xrotation Yrotation Zrotation
											JOINT LeftHandMiddle4
											{
												OFFSET 7.721573 0.000000 0.000000
												CHANNELS 3 Xrotation Yrotation Zrotation
												End Site
												{
													OFFSET -4.651108 6.158463 0.251582
												}
											}
										}
									}
								}
								JOINT LeftHandIndex1
								{
									OFFSET 21.310577 -0.490082 6.209344
									CHANNELS 3 Xrotation Yrotation Zrotation
									JOINT LeftHandIndex2
									{
										OFFSET 7.536453 0.000000 0.000000
										CHANNELS 3 Xrotation Yrotation Zrotation
										JOINT LeftHandIndex3
										{
											OFFSET 7.512344 0.000000 0.000000
											CHANNELS 3 Xrotation Yrotation Zrotation
											JOINT LeftHandIndex4
											{
												OFFSET 10.212402 0.000000 0.000001
												CHANNELS 3 Xrotation Yrotation Zrotation
												End Site
												{
													OFFSET -5.180801 8.690506 1.388433
												}
											}
										}
									}
								}
							}
						}
					}
				}
				JOINT RightShoulder
				{
					OFFSET -17.399500 24.608795 1.168800
					CHANNELS 3 Xrotation Yrotation Zrotation
					JOINT RightArm
					{
						OFFSET -18.980635 5.765305 1.818600
						CHANNELS 3 Xrotation Yrotation Zrotation
						JOINT RightForeArm
						{
							OFFSET -49.290169 0.000000 0.000000
							CHANNELS 3 Xrotation Yrotation Zrotation
							JOINT RightHand
							{
								OFFSET -31.562012 0.000000 0.000000
								CHANNELS 3 Xrotation Yrotation Zrotation
								JOINT RightHandThumb1
								{
									OFFSET -6.133995 -4.388519 7.076070
									CHANNELS 3 Xrotation Yrotation Zrotation
									JOINT RightHandThumb2
									{
										OFFSET -6.037666 -3.485840 3.485847
										CHANNELS 3 Xrotation Yrotation Zrotation
										JOINT RightHandThumb3
										{
											OFFSET -6.496506 -3.750763 3.750761
											CHANNELS 3 Xrotation Yrotation Zrotation
											JOINT RightHandThumb4
											{
												OFFSET -5.616882 -3.242905 3.242910
												CHANNELS 3 Xrotation Yrotation Zrotation
												End Site
												{
													OFFSET 1.254608 7.132141 0.375429
												}
											}
										}
									}
								}
								JOINT RightHandIndex1
								{
									OFFSET -21.310577 -0.490082 6.209344
									CHANNELS 3 Xrotation Yrotation Zrotation
									JOINT RightHandIndex2
									{
										OFFSET -7.536453 0.000000 0.000000
										CHANNELS 3 Xrotation Yrotation Zrotation
										JOINT RightHandIndex3
										{
											OFFSET -7.512344 0.000000 0.000000
											CHANNELS 3 Xrotation Yrotation Zrotation
											JOINT RightHandIndex4
											{
												OFFSET -10.212402 0.000000 0.000001
												CHANNELS 3 Xrotation Yrotation Zrotation
												End Site
												{
													OFFSET 5.180801 8.690506 1.388433
												}
											}
										}
									}
								}
								JOINT RightHandMiddle1
								{
									OFFSET -23.373947 0.000000 0.000001
									CHANNELS 3 Xrotation Yrotation Zrotation
									JOINT RightHandMiddle2
									{
										OFFSET -6.996567 0.000000 0.000000
										CHANNELS 3 Xrotation Yrotation Zrotation
										JOINT RightHandMiddle3
										{
											OFFSET -7.015945 0.000000 0.000000
											CHANNELS 3 Xrotation Yrotation Zrotation
											JOINT RightHandMiddle4
											{
												OFFSET -7.721573 0.000000 0.000000
												CHANNELS 3 Xrotation Yrotation Zrotation
												End Site
												{
													OFFSET 4.651108 6.158463 0.251582
												}
											}
										}
									}
								}
								JOINT RightHandRing1
								{
									OFFSET -22.726120 -0.094986 -6.500475
									CHANNELS 3 Xrotation Yrotation Zrotation
									JOINT RightHandRing2
									{
										OFFSET -6.408615 0.000000 0.000000
										CHANNELS 3 Xrotation Yrotation Zrotation
										JOINT RightHandRing3
										{
											OFFSET -6.150223 0.000000 0.000000
											CHANNELS 3 Xrotation Yrotation Zrotation
											JOINT RightHandRing4
											{
												OFFSET -6.145386 0.000000 0.000000
												CHANNELS 3 Xrotation Yrotation Zrotation
												End Site
												{
													OFFSET 3.671402 4.923981 -0.202372
												}
											}
										}
									}
								}
								JOINT RightHandPinky1
								{
									OFFSET -18.920792 -0.453171 -11.426712
									CHANNELS 3 Xrotation Yrotation Zrotation
									JOINT RightHandPinky2
									{
										OFFSET -4.919586 0.000000 0.000000
										CHANNELS 3 Xrotation Yrotation Zrotation
										JOINT RightHandPinky3
										{
											OFFSET -5.233047 0.000000 0.000000
											CHANNELS 3 Xrotation Yrotation Zrotation
											JOINT RightHandPinky4
											{
												OFFSET -5.571716 0.000000 0.000000
												CHANNELS 3 Xrotation Yrotation Zrotation
												End Site
												{
													OFFSET 3.459808 4.342407 -0.466164
												}
											}
										}
									}
								}
							}
						}
					}
				}
			}
		}
	}
	JOINT LeftUpLeg
	{
		OFFSET 19.899099 -7.885101 -3.429500
		CHANNELS 3 Xrotation Yrotation Zrotation
		JOINT LeftLeg
		{
			OFFSET 1.745560 -36.997807 10.304700
			CHANNELS 3 Xrotation Yrotation Zrotation
			JOINT LeftFoot
			{
				OFFSET -1.745558 -29.803308 -13.615400
				CHANNELS 3 Xrotation Yrotation Zrotation
				JOINT LeftToeBase
				{
					OFFSET 1.181900 -18.539904 15.226099
					CHANNELS 3 Xrotation Yrotation Zrotation
					JOINT LeftToe_End
					{
						OFFSET -0.863701 1.402801 16.534700
						CHANNELS 3 Xrotation Yrotation Zrotation
						End Site
						{
							OFFSET 0.000000 16.616566 0.000000
						}
					}
				}
			}
		}
	}
	JOINT RightUpLeg
	{
		OFFSET -19.899099 -7.885101 -3.429500
		CHANNELS 3 Xrotation Yrotation Zrotation
		JOINT RightLeg
		{
			OFFSET -1.745560 -36.997807 10.304700
			CHANNELS 3 Xrotation Yrotation Zrotation
			JOINT RightFoot
			{
				OFFSET 1.745558 -29.803308 -13.615400
				CHANNELS 3 Xrotation Yrotation Zrotation
				JOINT RightToeBase
				{
					OFFSET -1.181900 -18.539904 15.226099
					CHANNELS 3 Xrotation Yrotation Zrotation
					JOINT RightToe_End
					{
						OFFSET 0.863701 1.402801 16.534700
						CHANNELS 3 Xrotation Yrotation Zrotation
						End Site
						{
							OFFSET 0.000000 16.616566 0.000000
						}
					}
				}
			}
		}
	}
}
MOTION
Frames: 4
Frame Time: 0.033333
1.953146 39.714340 -14.812515 83.438165 1.888847 1.372855 12.135275 0.542794 -3.036518 14.331941 -1.042684 -0.439967 14.329737 -1.019028 -0.502669 -25.957639 -2.276648 3.831517 2.631770 1.335239 -0.772156 0.000001 -0.000000 0.000000 9.188196 -35.730663 20.735679 -46.184407 -4.988322 20.606587 0.000063 -64.131358 0.000063 -19.488177 -1.237654 81.699642 -1.509413 3.179732 11.648848 10.127047 -4.455529 7.651325 1.077592 -7.608996 23.794332 0.000001 -0.000001 0.000001 -9.777291 -14.113321 21.170287 1.477783 3.890843 -41.582007 0.578439 2.540208 -25.652795 -0.000002 0.000005 -0.000000 0.336422 -15.746501 -0.050883 0.434695 2.216428 -22.189983 0.472984 2.307982 -23.159811 -0.000001 -0.000001 -0.000002 -4.019995 -13.940532 -14.644621 0.076560 0.944991 -9.262630 0.068717 0.895634 -8.774832 -0.000001 0.000001 0.000001 -5.506916 -12.174033 -20.857154 0.099660 1.077114 -10.572096 0.088482 -1.015382 9.959392 -0.000003 0.000003 0.000002 6.773231 19.286180 -18.887823 -52.805825 19.427556 -0.541995 0.000008 73.450912 0.000007 -16.923634 -28.234955 -88.688019 -0.201459 3.035671 -7.196438 8.082095 6.484387 -13.941897 5.826190 15.094102 -37.811439 0.000000 0.000000 -0.000001 -3.539771 8.864242 17.503231 0.005294 -0.222327 2.729953 0.115559 -1.032074 12.776583 -0.000001 -0.000001 -0.000001 -0.236540 9.463292 1.874192 0.696180 -2.451417 31.704126 0.178745 -1.279160 15.908696 0.000001 0.000001 -0.000009 -0.639598 6.923379 4.599817 0.435380 -1.967930 24.947712 0.263190 -1.544947 19.334570 -0.000000 -0.000000 -0.000003 -8.507654 -0.850853 -9.018060 0.946338 -2.816037 37.143662 0.302027 -1.651405 20.726682 0.000001 0.000001 -0.000001 -161.590077 -12.356565 19.833473 92.814641 -1.973882 -2.494667 -9.930667 0.160533 -14.077830 -2.058616 0.000000 0.000001 0.000000 0.000000 0.000000 -27.504219 -2.492176 -7.360416 33.750768 -1.205617 -0.524988 -32.060891 -3.161924 1.980577 -58.721643 -3.159765 6.779324 0.000000 -0.000000 0.000000 
1.912474 39.972404 -14.655746 83.491119 2.033575 1.312629 12.280066 0.537937 -3.018740 14.470140 -1.066003 -0.542867 14.468026 -1.041880 -0.606568 -25.420409 -2.385459 3.904338 2.505925 0.931156 -0.626509 0.000000 0.000000 0.000000 9.359302 -36.275971 20.868656 -45.984757 -4.951780 21.722197 -0.000013 -64.030961 -0.000025 -19.818117 -1.239916 81.762876 -1.512310 3.179615 11.657556 10.125889 -4.458983 7.652064 1.077477 -7.608355 23.794130 0.000000 -0.000000 -0.000001 -9.734491 -14.192729 21.293075 1.477764 3.890820 -41.581632 0.578317 2.539929 -25.649917 -0.000002 -0.000000 -0.000004 0.350752 -15.765924 -0.006329 0.434521 2.215999 -22.185284 0.472867 2.307694 -23.156797 -0.000002 -0.000000 0.000007 -4.018164 -13.941745 -14.638033 0.076472 0.944496 -9.257656 0.068703 0.895560 -8.774017 0.000001 -0.000000 0.000004 -5.505811 -12.174123 -20.853310 0.099594 1.076766 -10.568459 0.088637 -1.016323 9.968818 -0.000003 0.000003 0.000001 6.657782 19.115543 -18.432924 -52.909258 19.562693 -0.865887 0.000036 73.380820 -0.000022 -17.212410 -28.004442 -88.936337 -0.201458 3.035664 -7.196449 8.082104 6.484373 -13.941889 5.826190 15.094108 -37.811446 -0.000000 -0.000002 0.000002 -3.539738 8.864269 17.503039 0.005297 -0.222295 2.729953 0.115556 -1.032092 12.776574 -0.000002 -0.000001 -0.000002 -0.236503 9.463298 1.873992 0.696187 -2.451418 31.704126 0.178747 -1.279144 15.908685 0.000001 0.000001 -0.000004 -0.639569 6.923401 4.599615 0.435375 -1.967920 24.947717 0.263197 -1.544931 19.334565 -0.000000 -0.000000 -0.000003 -8.507664 -0.850813 -9.018308 0.946328 -2.816024 37.143662 0.302025 -1.651399 20.726694 -0.000000 -0.000002 0.000005 -161.023745 -11.987602 19.832959 92.493664 -2.190233 -2.565989 -10.298145 0.372343 -13.947225 -2.102497 -0.000006 -0.000001 0.000000 -0.000000 0.000000 -27.378958 -2.341402 -7.461443 33.098229 -1.481950 -0.145593 -31.548374 -3.041400 1.898446 -58.743206 -3.135194 6.771676 0.000000 -0.000000 -0.000000 
1.789477 40.442047 -14.502701 83.923470 2.425210 1.015836 12.400385 0.488073 -2.926809 14.570491 -1.164692 -0.536361 14.568196 -1.141022 -0.601743 -25.043749 -2.430701 3.915838 1.964006 0.698137 -0.311027 -0.000000 0.000000 0.000000 9.599432 -36.664869 21.243966 -46.167578 -4.896575 22.899404 -0.000007 -64.004610 -0.000021 -20.161921 -1.142278 81.706479 -1.515128 3.178549 11.666715 10.125871 -4.459147 7.652111 1.077457 -7.608248 23.794070 0.000001 0.000001 -0.000001 -9.692891 -14.270064 21.410229 1.477785 3.890876 -41.581850 0.578179 2.539653 -25.647019 -0.000005 -0.000001 0.000001 0.365030 -15.785069 0.037960 0.434495 2.215926 -22.184557 0.472774 2.307512 -23.154712 0.000001 -0.000001 0.000003 -4.015695 -13.943886 -14.628802 0.076456 0.944397 -9.256817 0.068711 0.895559 -8.774071 -0.000002 -0.000003 0.000009 -5.503810 -12.176748 -20.843985 0.099581 1.076663 -10.567579 0.088630 -1.016259 9.968225 0.000000 0.000001 0.000003 6.553176 18.548210 -18.254061 -53.404296 19.730093 -0.910332 0.000084 73.299937 -0.000074 -17.695299 -27.708483 -89.294594 -0.201455 3.035681 -7.196445 8.082086 6.484370 -13.941881 5.826194 15.094091 -37.811459 0.000000 -0.000001 -0.000001 -3.539710 8.864332 17.502845 0.005297 -0.222314 2.729954 0.115550 -1.032078 12.776584 0.000001 -0.000001 -0.000004 -0.236462 9.463336 1.873789 0.696182 -2.451407 31.704123 0.178737 -1.279164 15.908685 0.000001 0.000001 -0.000001 -0.639535 6.923454 4.599410 0.435381 -1.967937 24.947703 0.263195 -1.544937 19.334590 -0.000001 -0.000001 -0.000003 -8.507674 -0.850742 -9.018544 0.946319 -2.816020 37.143648 0.302017 -1.651386 20.726699 -0.000000 -0.000002 0.000002 -160.428877 -11.331997 19.957879 91.565912 -2.234715 -2.849599 -10.517578 0.058644 -13.715223 -2.130916 -0.000002 -0.000005 0.000000 0.000001 0.000000 -27.538647 -2.054182 -7.348517 32.076245 -2.271129 0.309787 -30.692063 -2.903045 1.881163 -58.755712 -3.101504 6.763096 0.000000 -0.000000 -0.000000 
1.592151 41.113476 -14.309708 84.773876 3.075339 0.473926 12.501234 0.384376 -2.756597 14.644574 -1.364954 -0.418099 14.641875 -1.342464 -0.486170 -24.948367 -2.436362 3.862847 1.116122 0.490866 -0.084329 0.000001 -0.000000 0.000000 9.837661 -36.964154 21.638697 -46.889976 -4.928885 24.288272 0.000031 -64.180863 0.000018 -20.366767 -0.822217 81.398622 -1.517898 3.177162 11.675904 10.126228 -4.458051 7.651887 1.077481 -7.608441 23.794127 0.000001 -0.000000 0.000004 -9.652060 -14.345783 21.524129 1.477786 3.890853 -41.582028 0.578044 2.539395 -25.644058 0.000003 -0.000000 -0.000001 0.379172 -15.803955 0.081757 0.434507 2.215968 -22.185047 0.472701 2.307324 -23.152876 -0.000002 -0.000001 0.000001 -4.013045 -13.946232 -14.618913 0.076465 0.944448 -9.257363 0.068711 0.895610 -8.774364 -0.000000 -0.000000 0.000004 -5.501602 -12.180074 -20.833329 0.099578 1.076699 -10.567756 0.088570 -1.015942 9.964974 -0.000002 0.000003 0.000001 6.404788 17.553422 -18.101608 -54.416462 20.144794 -0.639209 0.000060 73.271005 -0.000052 -18.220587 -27.411091 -89.678820 -0.201462 3.035663 -7.196445 8.082110 6.484388 -13.941904 5.826179 15.094100 -37.811439 0.000001 -0.000002 0.000001 -3.539679 8.864366 17.502655 0.005292 -0.222310 2.729953 0.115562 -1.032080 12.776575 -0.000001 -0.000001 -0.000001 -0.236428 9.463347 1.873602 0.696185 -2.451425 31.704116 0.178750 -1.279160 15.908694 -0.000000 -0.000000 -0.000004 -0.639508 6.923450 4.599213 0.435378 -1.967923 24.947718 0.263199 -1.544943 19.334563 -0.000000 0.000001 -0.000003 -8.507693 -0.850690 -9.018788 0.946310 -2.816010 37.143655 0.302017 -1.651414 20.726706 -0.000000 -0.000002 0.000005 -159.857859 -10.183935 20.344644 90.095168 -1.847896 -3.231156 -10.660552 -1.212044 -13.394083 -2.493599 -0.000002 -0.000003 -0.000000 0.000001 0.000000 -27.962065 -1.709635 -6.926545 30.562426 -3.370149 0.670130 -29.448081 -2.943256 1.825028 -58.753164 -3.053377 6.752704 -0.000000 -0.000000 -0.000000 
